<svg id="svg" version="1.1" xmlns="http://www.w3.org/2000/svg" xmlns:xlink="http://www.w3.org/1999/xlink" width="400" height="484.59016393442624" viewBox="0, 0, 400,484.59016393442624"><g id="svgg"><path id="path0" d="M304.890 13.119 C 301.359 13.715,299.193 16.208,298.577 20.384 C 298.148 23.293,298.017 23.122,301.311 23.953 C 306.409 25.239,311.889 27.303,316.967 29.849 L 319.326 31.033 319.481 30.216 C 319.707 29.021,319.224 25.308,318.564 23.169 C 316.406 16.181,310.866 12.109,304.890 13.119 M268.525 22.517 C 261.608 23.014,252.878 24.308,248.634 25.467 C 238.746 28.166,235.176 29.398,230.622 31.684 L 228.478 32.760 228.780 34.358 C 228.954 35.274,229.057 36.937,229.023 38.251 L 228.962 40.546 228.306 40.546 C 227.672 40.546,227.649 40.510,227.597 39.454 C 227.120 29.676,222.467 23.852,215.116 23.830 C 209.519 23.814,204.004 27.944,202.945 32.944 C 201.584 39.365,203.891 46.480,208.624 50.456 C 210.277 51.845,210.582 52.354,209.917 52.610 C 209.488 52.774,208.580 52.307,206.992 51.105 L 205.811 50.211 205.066 51.062 C 199.717 57.170,193.243 67.625,186.334 81.311 C 171.891 109.920,159.463 128.373,146.929 139.818 C 134.306 151.345,121.278 160.565,106.995 168.080 C 105.552 168.839,101.814 170.858,98.689 172.565 C 95.563 174.273,89.696 177.404,85.652 179.522 C 68.157 188.684,61.890 193.395,51.679 205.060 C 35.923 223.060,26.543 243.471,24.220 264.809 C 23.751 269.115,23.826 286.167,24.329 289.508 C 25.616 298.067,28.080 306.543,32.080 316.175 C 36.031 325.685,38.386 330.025,44.478 339.016 C 48.823 345.430,53.562 353.153,54.761 355.772 C 57.099 360.885,57.910 364.035,58.886 371.803 C 60.899 387.824,61.323 418.952,59.879 444.743 L 59.657 448.720 60.641 449.627 C 69.634 457.916,87.694 466.782,101.350 469.612 C 109.819 471.366,126.597 472.038,136.583 471.023 L 139.287 470.748 139.145 468.325 C 138.721 461.108,137.566 457.513,134.801 454.808 C 133.071 453.114,133.868 452.177,135.775 453.662 C 139.188 456.321,141.202 461.968,141.202 468.876 C 141.202 470.175,141.256 470.383,141.591 470.383 C 142.177 470.383,147.552 469.343,150.205 468.717 L 152.541 468.165 152.693 466.947 C 153.375 461.492,151.354 454.230,148.224 450.884 C 146.285 448.810,146.678 447.586,148.741 449.276 C 152.575 452.418,154.456 457.013,154.722 463.886 L 154.863 467.554 157.067 466.452 C 163.834 463.070,165.069 455.051,159.721 449.215 C 156.613 445.823,156.630 443.126,159.811 435.356 C 160.414 433.883,161.449 431.350,162.111 429.727 C 168.397 414.321,168.102 388.444,161.394 366.700 C 160.411 363.511,160.360 362.816,161.134 363.113 C 161.722 363.339,164.800 372.381,165.591 376.203 L 165.981 378.090 166.761 378.002 C 167.190 377.953,169.803 377.667,172.568 377.366 C 202.145 374.145,232.886 364.128,253.614 350.956 C 274.827 337.477,287.175 320.138,293.774 294.567 L 294.894 290.226 293.099 285.714 C 289.217 275.955,288.375 272.748,285.919 258.361 C 283.223 242.574,283.228 225.066,285.931 216.946 C 290.303 203.810,305.063 196.669,319.781 200.568 C 332.105 203.833,343.460 218.875,348.651 238.811 C 350.857 247.282,351.237 250.150,350.096 249.712 C 349.725 249.570,349.580 249.152,348.966 246.448 C 345.540 231.366,339.386 218.581,331.827 210.846 C 325.394 204.264,320.638 201.972,312.678 201.619 C 308.696 201.442,308.494 201.570,310.410 203.060 C 313.659 205.587,317.774 210.631,319.235 213.876 C 320.853 217.471,320.878 217.571,320.246 217.909 C 319.723 218.189,319.409 217.845,318.464 215.956 C 316.199 211.428,308.833 203.418,305.862 202.252 C 304.751 201.816,295.082 206.273,295.082 207.221 C 295.082 207.297,295.622 207.731,296.281 208.185 C 300.826 211.315,307.313 220.814,307.411 224.481 C 307.461 226.350,306.531 225.518,304.836 222.176 C 302.317 217.211,298.713 212.650,295.335 210.152 L 293.449 208.757 292.718 209.460 C 284.846 217.038,283.779 237.866,289.727 267.869 C 291.109 274.843,294.082 283.496,297.698 291.072 C 307.242 311.065,324.106 318.896,343.665 312.418 C 355.213 308.593,365.024 294.962,367.535 279.251 C 368.966 270.302,369.409 253.913,368.437 245.902 C 366.328 228.528,362.339 215.154,352.853 193.661 C 351.659 190.956,350.197 187.637,349.604 186.284 C 349.011 184.932,348.454 183.825,348.366 183.825 C 347.821 183.825,342.368 188.965,340.286 191.440 C 339.761 192.063,339.351 192.360,339.088 192.306 C 337.376 191.953,341.996 186.759,352.459 177.274 C 367.744 163.418,379.396 147.450,383.567 134.645 C 388.702 118.878,387.812 106.143,380.845 95.678 C 376.703 89.455,370.062 85.635,358.318 82.718 C 353.187 81.444,353.537 81.771,352.271 77.049 C 349.686 67.408,345.963 58.735,341.609 52.210 C 329.061 33.406,297.196 20.460,268.525 22.517 M314.426 33.885 C 319.205 34.834,321.005 35.642,324.111 38.232 C 325.139 39.089,325.473 39.501,325.423 39.852 C 325.308 40.655,324.722 40.506,322.609 39.140 C 319.739 37.284,316.187 36.288,312.434 36.285 C 310.817 36.284,309.945 35.748,309.945 34.754 C 309.945 33.999,310.903 33.147,311.575 33.304 C 311.821 33.361,313.104 33.623,314.426 33.885 M272.131 36.066 C 273.236 37.171,272.443 38.776,270.671 39.021 C 266.133 39.649,262.058 41.502,258.992 44.334 C 257.586 45.632,256.878 45.937,256.677 45.332 C 256.541 44.922,259.536 41.251,260.786 40.295 C 265.086 37.008,270.904 34.839,272.131 36.066 M332.767 49.789 C 345.851 54.601,349.601 73.129,339.432 82.722 C 334.970 86.932,326.422 87.646,319.655 84.375 C 313.807 81.548,310.368 72.124,312.021 63.455 C 313.066 57.967,316.968 52.601,321.364 50.603 C 324.681 49.095,329.872 48.725,332.767 49.789 M280.874 56.706 C 294.675 59.204,302.086 74.836,296.834 90.371 C 293.006 101.698,279.544 106.821,266.675 101.847 C 251.656 96.041,248.039 75.212,259.872 62.669 C 264.651 57.602,272.896 55.261,280.874 56.706 M354.797 85.685 C 363.431 86.934,363.562 95.770,355.013 100.186 C 349.466 103.051,336.801 104.180,332.956 102.153 C 328.402 99.751,328.202 93.667,332.576 90.556 C 337.070 87.360,348.721 84.806,354.797 85.685 M277.673 115.004 C 283.999 116.078,287.247 117.632,297.553 124.516 C 307.347 131.058,312.602 133.476,318.142 133.989 C 319.344 134.100,321.474 134.294,322.874 134.420 C 326.646 134.759,327.926 135.334,329.203 137.261 C 334.450 145.183,325.275 162.617,311.366 171.155 C 297.856 179.449,278.625 178.332,265.390 168.485 C 248.371 155.823,244.787 133.842,257.645 120.984 C 263.637 114.993,268.703 113.480,277.673 115.004 M187.717 181.997 C 187.767 182.351,187.437 182.705,186.296 183.518 C 176.104 190.779,166.890 201.107,162.134 210.601 C 154.612 225.615,151.616 246.969,154.989 261.530 C 160.188 283.979,175.189 296.834,200.109 300.196 C 229.040 304.098,252.310 294.007,267.849 270.820 C 277.305 256.710,280.093 225.831,273.151 212.108 C 271.628 209.097,271.862 209.219,269.944 210.449 C 266.048 212.948,263.735 217.186,262.852 223.443 C 262.725 224.342,262.638 224.481,262.196 224.481 C 261.450 224.481,261.392 224.070,261.749 221.345 C 262.624 214.670,264.955 210.952,270.268 207.760 C 271.073 207.275,266.535 201.938,263.758 200.104 L 262.488 199.265 261.790 199.664 C 256.414 202.734,251.582 207.888,249.510 212.764 C 248.254 215.720,247.182 214.766,248.375 211.754 C 250.551 206.256,256.122 199.818,259.989 198.335 C 260.447 198.159,258.604 197.348,256.507 196.804 C 235.372 191.319,214.868 204.430,201.707 231.845 C 200.116 235.160,199.920 235.423,199.414 234.918 C 198.597 234.100,205.851 220.125,209.859 214.793 C 219.953 201.369,232.426 194.093,245.976 193.723 C 260.928 193.315,269.853 199.049,275.874 212.931 C 282.118 227.328,278.941 257.718,269.720 271.799 C 253.671 296.303,227.837 306.966,196.940 301.838 C 168.186 297.065,151.776 277.793,151.824 248.852 C 151.873 219.224,161.661 199.403,184.140 183.416 C 186.989 181.390,187.595 181.149,187.717 181.997 M22.295 206.685 C 10.915 209.687,9.498 229.977,20.098 238.134 C 22.150 239.712,27.115 241.993,27.405 241.491 C 27.427 241.452,28.031 239.945,28.746 238.142 C 30.870 232.788,34.896 224.896,38.522 218.975 L 39.953 216.639 39.255 215.035 C 37.055 209.974,34.401 207.579,29.986 206.668 C 27.970 206.253,23.899 206.262,22.295 206.685 M238.689 361.564 C 228.990 366.030,213.150 371.355,198.178 375.182 C 191.390 376.917,182.738 378.368,172.787 379.442 C 170.503 379.688,168.140 379.943,167.537 380.009 L 166.440 380.128 167.020 383.605 C 168.929 395.039,169.263 406.412,167.970 415.905 L 167.634 418.368 168.262 419.293 C 173.837 427.509,176.216 435.333,176.262 445.607 L 176.284 450.668 177.361 451.618 C 182.340 456.013,185.614 457.440,194.314 459.006 C 205.484 461.018,221.745 461.411,230.477 459.882 C 232.747 459.484,232.569 459.723,232.565 457.089 C 232.558 452.881,231.266 449.203,229.061 447.116 C 227.871 445.989,227.818 445.869,228.323 445.451 C 229.153 444.761,231.395 446.863,232.958 449.797 C 234.113 451.965,234.464 453.347,234.658 456.483 C 234.743 457.877,234.832 459.016,234.855 459.016 C 235.720 459.016,242.832 456.565,245.301 455.416 L 246.557 454.831 246.557 453.096 C 246.557 449.127,245.275 445.398,242.713 441.917 C 241.759 440.622,241.688 440.000,242.495 440.000 C 242.785 440.000,244.189 441.429,245.180 442.732 C 246.888 444.980,248.525 449.583,248.525 452.141 L 248.525 453.766 249.995 452.866 C 251.892 451.704,254.710 449.558,255.769 448.467 C 259.420 444.704,258.732 437.209,254.308 432.568 C 251.935 430.078,251.919 429.782,253.900 424.529 C 256.538 417.529,256.941 415.140,256.763 407.541 C 256.393 391.766,251.336 375.752,242.261 361.615 L 241.421 360.306 238.689 361.564 " stroke="none" fill="#a46c44" fill-rule="evenodd"></path><path id="path1" d="M325.392 51.504 C 315.243 53.681,310.500 66.661,315.896 77.486 C 318.336 82.380,323.461 84.750,330.624 84.295 C 343.803 83.459,347.837 63.941,336.757 54.615 C 333.152 51.582,329.583 50.604,325.392 51.504 M273.115 58.506 C 257.948 60.360,249.981 78.439,258.174 92.411 C 266.214 106.121,290.251 104.100,294.953 89.319 C 300.554 71.713,289.753 56.473,273.115 58.506 M331.484 62.487 C 335.420 64.275,334.435 70.232,330.119 70.743 C 327.477 71.056,325.264 69.126,325.251 66.496 C 325.234 63.261,328.527 61.144,331.484 62.487 M283.397 70.793 C 287.333 72.581,286.348 78.538,282.032 79.049 C 279.389 79.362,277.177 77.432,277.163 74.802 C 277.147 71.568,280.440 69.450,283.397 70.793 M269.022 117.730 C 267.796 119.771,267.599 120.241,267.232 122.021 C 265.790 128.998,269.477 131.584,278.863 130.181 C 281.226 129.828,282.356 129.375,283.601 128.282 C 285.160 126.913,285.536 128.059,284.076 129.731 L 283.125 130.820 283.514 131.733 C 285.512 136.423,294.946 137.529,298.860 133.532 C 300.469 131.890,301.549 131.875,300.612 133.509 C 300.224 134.184,301.211 135.899,302.630 137.015 C 305.398 139.193,311.914 139.029,314.823 136.709 C 315.809 135.922,315.819 135.811,314.918 135.629 C 309.906 134.618,305.740 132.477,295.410 125.605 C 284.983 118.667,280.534 116.900,272.657 116.565 L 269.795 116.443 269.022 117.730 " stroke="none" fill="#fcfcfc" fill-rule="evenodd"></path><path id="path2" d="M264.648 118.230 C 254.511 123.274,249.403 137.310,253.376 149.203 L 253.880 150.710 257.130 150.873 C 272.897 151.663,283.237 158.934,287.902 172.513 L 288.634 174.643 289.617 174.643 C 301.666 174.650,310.623 170.860,318.924 162.245 C 327.162 153.694,331.028 142.129,327.044 137.952 C 326.024 136.883,325.274 136.668,321.472 136.357 L 318.464 136.112 317.101 137.410 C 312.000 142.270,302.457 141.721,299.305 136.386 L 298.955 135.793 298.188 136.313 C 293.080 139.779,283.565 137.640,281.637 132.592 L 281.284 131.669 279.713 132.069 C 271.196 134.239,264.887 131.174,264.897 124.872 C 264.901 122.554,265.374 120.161,266.118 118.694 C 266.943 117.065,266.971 117.073,264.648 118.230 " stroke="none" fill="#6c3c34" fill-rule="evenodd"></path><path id="path3" d="M303.554 11.255 C 299.399 12.310,297.009 15.495,296.419 20.763 C 296.175 22.945,296.446 22.777,293.988 22.267 C 273.855 18.094,247.918 21.040,230.310 29.501 C 229.008 30.127,227.919 30.606,227.891 30.565 C 227.862 30.525,227.579 29.951,227.263 29.290 C 223.087 20.565,211.793 19.103,204.455 26.338 C 199.354 31.368,199.028 40.916,203.722 47.766 L 204.326 48.646 202.254 51.154 C 197.048 57.453,189.834 69.337,184.081 81.093 C 171.268 107.268,156.965 128.135,143.934 139.662 C 130.448 151.592,120.830 158.278,104.699 166.938 C 97.182 170.975,95.672 171.795,94.536 172.460 C 94.175 172.671,91.568 174.047,88.743 175.518 C 78.626 180.787,75.131 182.695,71.669 184.836 C 61.388 191.195,51.567 200.760,41.824 213.900 L 41.352 214.536 40.787 213.275 C 35.763 202.081,19.197 200.701,13.459 210.999 C 7.024 222.547,12.703 238.995,24.454 242.843 C 25.671 243.242,26.667 243.638,26.667 243.724 C 26.667 243.809,26.517 244.305,26.333 244.824 C 21.681 258.010,20.234 280.149,23.084 294.536 C 26.109 309.808,32.985 325.831,42.546 339.891 C 54.584 357.593,56.219 361.970,57.698 380.437 C 59.224 399.488,59.258 410.536,57.889 443.258 L 57.620 449.686 58.919 450.895 C 63.375 455.044,69.487 459.121,76.478 462.610 C 81.474 465.103,85.418 466.811,90.305 468.599 C 111.658 476.411,151.916 474.870,161.739 465.864 C 166.295 461.688,166.077 452.955,161.293 447.959 C 158.859 445.417,158.661 443.393,160.440 439.235 C 160.955 438.033,161.694 436.262,162.082 435.301 C 162.470 434.339,163.281 432.371,163.883 430.927 C 164.899 428.493,165.813 425.792,166.686 422.646 L 167.044 421.359 167.713 422.428 C 172.242 429.669,173.956 435.774,174.182 445.475 C 174.339 452.215,174.165 451.671,176.880 453.939 C 182.002 458.217,185.497 459.630,194.863 461.207 C 221.705 465.726,244.547 461.720,256.840 450.338 C 261.646 445.889,261.247 436.664,256.027 431.552 C 253.826 429.396,253.845 429.783,255.709 425.091 C 258.536 417.972,258.897 416.167,258.887 409.180 C 258.866 393.359,254.270 377.552,245.365 362.672 C 243.120 358.921,243.127 359.434,245.301 358.267 C 266.092 347.100,278.562 335.087,287.138 317.965 C 291.319 309.616,293.895 302.845,295.749 295.330 C 296.318 293.022,296.316 293.022,297.481 295.301 C 305.122 310.247,320.656 318.756,335.847 316.316 C 350.168 314.016,358.566 307.663,364.931 294.317 C 371.921 279.661,373.144 255.303,368.109 231.038 C 366.054 221.133,361.662 208.499,355.041 193.443 C 350.506 183.130,350.164 182.344,350.164 182.242 C 350.164 182.188,351.809 180.678,353.820 178.886 C 361.236 172.279,367.999 164.954,372.429 158.734 C 381.728 145.677,385.114 138.826,387.521 128.197 C 390.486 115.112,388.835 103.870,382.566 94.438 C 377.904 87.425,370.349 83.326,355.800 79.916 C 355.348 79.810,355.154 79.583,354.981 78.960 C 352.117 68.607,350.585 64.419,347.199 57.678 C 342.044 47.413,334.433 39.498,324.073 33.628 L 321.480 32.159 321.514 29.577 C 321.671 17.530,313.136 8.823,303.554 11.255 M308.415 13.121 C 312.982 13.833,316.869 17.682,318.564 23.169 C 319.224 25.308,319.707 29.021,319.481 30.216 L 319.326 31.033 316.967 29.849 C 311.889 27.303,306.409 25.239,301.311 23.953 C 298.017 23.122,298.148 23.293,298.577 20.384 C 299.384 14.913,302.963 12.271,308.415 13.121 M284.481 22.827 C 311.828 26.170,334.293 38.603,343.700 55.600 C 347.568 62.587,350.078 68.870,352.271 77.049 C 353.537 81.771,353.187 81.444,358.318 82.718 C 374.007 86.615,381.006 92.266,385.003 104.262 C 386.734 109.457,387.357 117.146,386.482 122.514 C 384.872 132.399,382.391 139.391,377.890 146.735 C 370.270 159.167,363.606 167.169,352.459 177.274 C 341.996 186.759,337.376 191.953,339.088 192.306 C 339.351 192.360,339.761 192.063,340.286 191.440 C 342.368 188.965,347.821 183.825,348.366 183.825 C 348.454 183.825,349.011 184.932,349.604 186.284 C 350.197 187.637,351.659 190.956,352.853 193.661 C 362.339 215.154,366.328 228.528,368.437 245.902 C 369.409 253.913,368.966 270.302,367.535 279.251 C 365.024 294.962,355.213 308.593,343.665 312.418 C 324.106 318.896,307.242 311.065,297.698 291.072 C 294.082 283.496,291.109 274.843,289.727 267.869 C 286.130 249.727,285.120 235.189,286.651 223.633 C 287.432 217.737,289.754 212.314,292.718 209.460 L 293.449 208.757 295.335 210.152 C 298.713 212.650,302.317 217.211,304.836 222.176 C 306.531 225.518,307.461 226.350,307.411 224.481 C 307.313 220.814,300.826 211.315,296.281 208.185 C 295.622 207.731,295.082 207.297,295.082 207.221 C 295.082 206.273,304.751 201.816,305.862 202.252 C 308.833 203.418,316.199 211.428,318.464 215.956 C 319.409 217.845,319.723 218.189,320.246 217.909 C 320.878 217.571,320.853 217.471,319.235 213.876 C 317.774 210.631,313.659 205.587,310.410 203.060 C 308.494 201.570,308.696 201.442,312.678 201.619 C 320.638 201.972,325.394 204.264,331.827 210.846 C 339.386 218.581,345.540 231.366,348.966 246.448 C 349.580 249.152,349.725 249.570,350.096 249.712 C 351.237 250.150,350.857 247.282,348.651 238.811 C 343.460 218.875,332.105 203.833,319.781 200.568 C 305.063 196.669,290.303 203.810,285.931 216.946 C 283.792 223.373,283.264 239.903,284.832 251.366 C 286.982 267.079,288.966 275.322,293.099 285.714 L 294.894 290.226 293.774 294.567 C 287.175 320.138,274.827 337.477,253.614 350.956 C 232.886 364.128,202.145 374.145,172.568 377.366 C 169.803 377.667,167.190 377.953,166.761 378.002 L 165.981 378.090 165.591 376.203 C 164.800 372.381,161.722 363.339,161.134 363.113 C 160.360 362.816,160.411 363.511,161.394 366.700 C 168.102 388.444,168.397 414.321,162.111 429.727 C 161.449 431.350,160.414 433.883,159.811 435.356 C 156.630 443.126,156.613 445.823,159.721 449.215 C 165.069 455.051,163.834 463.070,157.067 466.452 L 154.863 467.554 154.722 463.886 C 154.456 457.013,152.575 452.418,148.741 449.276 C 146.678 447.586,146.285 448.810,148.224 450.884 C 151.354 454.230,153.375 461.492,152.693 466.947 L 152.541 468.165 150.205 468.717 C 147.552 469.343,142.177 470.383,141.591 470.383 C 141.256 470.383,141.202 470.175,141.202 468.876 C 141.202 461.968,139.188 456.321,135.775 453.662 C 133.868 452.177,133.071 453.114,134.801 454.808 C 137.566 457.513,138.721 461.108,139.145 468.325 L 139.287 470.748 136.583 471.023 C 126.597 472.038,109.819 471.366,101.350 469.612 C 87.694 466.782,69.634 457.916,60.641 449.627 L 59.657 448.720 59.879 444.743 C 61.323 418.952,60.899 387.824,58.886 371.803 C 57.910 364.035,57.099 360.885,54.761 355.772 C 53.562 353.153,48.823 345.430,44.478 339.016 C 38.386 330.025,36.031 325.685,32.080 316.175 C 28.080 306.543,25.616 298.067,24.329 289.508 C 23.826 286.167,23.751 269.115,24.220 264.809 C 26.543 243.471,35.923 223.060,51.679 205.060 C 61.890 193.395,68.157 188.684,85.652 179.522 C 89.696 177.404,95.563 174.273,98.689 172.565 C 101.814 170.858,105.552 168.839,106.995 168.080 C 121.278 160.565,134.306 151.345,146.929 139.818 C 157.649 130.029,168.801 114.296,180.963 91.803 C 181.580 90.661,183.997 85.940,186.334 81.311 C 193.243 67.625,199.717 57.170,205.066 51.062 L 205.811 50.211 206.992 51.105 C 208.580 52.307,209.488 52.774,209.917 52.610 C 210.582 52.354,210.277 51.845,208.624 50.456 C 203.891 46.480,201.584 39.365,202.945 32.944 C 204.004 27.944,209.519 23.814,215.116 23.830 C 222.467 23.852,227.120 29.676,227.597 39.454 C 227.649 40.510,227.672 40.546,228.306 40.546 L 228.962 40.546 229.023 38.251 C 229.057 36.937,228.954 35.274,228.780 34.358 L 228.478 32.760 230.622 31.684 C 235.176 29.398,238.746 28.166,248.634 25.467 C 258.030 22.901,274.919 21.658,284.481 22.827 M310.537 33.665 C 309.094 34.800,310.168 36.284,312.434 36.285 C 316.187 36.288,319.739 37.284,322.609 39.140 C 324.722 40.506,325.308 40.655,325.423 39.852 C 325.473 39.501,325.139 39.089,324.111 38.232 C 321.005 35.642,319.205 34.834,314.426 33.885 C 313.104 33.623,311.821 33.361,311.575 33.304 C 311.317 33.243,310.878 33.396,310.537 33.665 M268.415 36.272 C 265.311 37.303,263.339 38.343,260.786 40.295 C 259.536 41.251,256.541 44.922,256.677 45.332 C 256.878 45.937,257.586 45.632,258.992 44.334 C 262.058 41.502,266.133 39.649,270.671 39.021 C 271.974 38.841,272.568 38.292,272.568 37.268 C 272.568 35.550,271.417 35.274,268.415 36.272 M324.153 49.633 C 318.767 51.102,315.257 54.533,312.700 60.832 C 310.218 66.944,312.076 77.347,316.486 82.030 C 320.538 86.334,330.315 87.768,336.308 84.938 C 340.125 83.135,343.801 78.123,344.820 73.333 C 347.780 59.407,336.356 46.305,324.153 49.633 M331.027 51.482 C 340.803 54.028,346.203 67.088,341.418 76.612 C 338.315 82.786,333.557 85.115,326.169 84.074 C 319.570 83.145,316.665 80.702,314.693 74.426 C 310.625 61.475,319.817 48.562,331.027 51.482 M270.674 56.723 C 261.020 58.233,252.786 69.034,252.844 80.109 C 252.922 94.853,264.188 105.093,278.707 103.616 C 291.254 102.339,298.437 93.976,298.426 80.656 C 298.412 63.862,287.146 54.146,270.674 56.723 M279.350 58.590 C 292.471 60.217,299.689 74.432,294.953 89.319 C 291.232 101.015,276.332 105.343,264.164 98.261 C 255.579 93.264,252.339 80.015,257.281 70.111 C 261.683 61.290,269.252 57.338,279.350 58.590 M327.760 62.490 C 325.577 63.497,324.643 66.084,325.657 68.315 C 327.450 72.262,333.402 71.265,333.915 66.930 C 334.319 63.520,330.889 61.046,327.760 62.490 M279.672 70.796 C 277.490 71.803,276.556 74.390,277.569 76.621 C 279.362 80.568,285.314 79.571,285.828 75.236 C 286.232 71.826,282.801 69.352,279.672 70.796 M348.075 85.695 C 343.031 86.185,335.324 88.602,332.576 90.556 C 327.292 94.314,328.870 101.630,335.251 102.966 C 338.063 103.554,347.326 102.792,351.467 101.632 C 357.035 100.072,361.311 96.012,361.311 92.286 C 361.311 87.001,356.957 84.833,348.075 85.695 M269.407 114.546 C 253.610 117.015,245.124 137.324,253.012 153.787 C 263.911 176.533,294.607 183.902,314.973 168.662 C 326.860 159.767,333.867 144.303,329.203 137.261 C 327.926 135.334,326.646 134.759,322.874 134.420 C 321.474 134.294,319.344 134.100,318.142 133.989 C 312.602 133.476,307.347 131.058,297.553 124.516 C 288.962 118.778,286.648 117.514,281.937 115.986 C 278.447 114.853,272.105 114.125,269.407 114.546 M277.486 117.042 C 282.863 118.013,286.890 119.936,295.410 125.605 C 305.740 132.477,309.906 134.618,314.918 135.629 C 315.819 135.811,315.809 135.922,314.823 136.709 C 311.914 139.029,305.398 139.193,302.630 137.015 C 301.211 135.899,300.224 134.184,300.612 133.509 C 301.549 131.875,300.469 131.890,298.860 133.532 C 294.946 137.529,285.512 136.423,283.514 131.733 L 283.125 130.820 284.076 129.731 C 285.536 128.059,285.160 126.913,283.601 128.282 C 282.356 129.375,281.226 129.828,278.863 130.181 C 269.477 131.584,265.790 128.998,267.232 122.021 C 267.599 120.241,267.796 119.771,269.022 117.730 L 269.795 116.443 272.657 116.565 C 274.231 116.632,276.404 116.846,277.486 117.042 M266.667 117.494 C 266.667 117.558,266.420 118.098,266.118 118.694 C 265.374 120.161,264.901 122.554,264.897 124.872 C 264.887 131.174,271.196 134.239,279.713 132.069 L 281.284 131.669 281.637 132.592 C 283.565 137.640,293.080 139.779,298.188 136.313 L 298.955 135.793 299.305 136.386 C 302.457 141.721,312.000 142.270,317.101 137.410 L 318.464 136.112 321.472 136.357 C 325.274 136.668,326.024 136.883,327.044 137.952 C 331.028 142.129,327.162 153.694,318.924 162.245 C 310.623 170.860,301.666 174.650,289.617 174.643 L 288.634 174.643 287.902 172.513 C 283.237 158.934,272.897 151.663,257.130 150.873 L 253.880 150.710 253.376 149.203 C 250.401 140.295,252.488 129.527,258.426 123.148 C 261.089 120.287,266.667 116.460,266.667 117.494 M258.361 153.013 C 272.523 154.266,281.083 160.341,285.591 172.338 C 286.476 174.693,286.630 174.520,284.017 174.100 C 273.802 172.456,264.463 166.821,258.393 158.638 C 257.168 156.986,254.863 153.220,254.863 152.870 C 254.863 152.741,255.645 152.773,258.361 153.013 M184.140 183.416 C 161.661 199.403,151.873 219.224,151.824 248.852 C 151.776 277.793,168.186 297.065,196.940 301.838 C 227.837 306.966,253.671 296.303,269.720 271.799 C 278.941 257.718,282.118 227.328,275.874 212.931 C 270.785 201.197,263.565 195.356,252.315 193.869 C 231.560 191.126,212.764 204.635,200.768 230.915 C 199.282 234.170,199.127 234.630,199.414 234.918 C 199.920 235.423,200.116 235.160,201.707 231.845 C 214.187 205.847,233.521 192.507,253.446 196.144 C 257.097 196.811,260.762 198.038,259.989 198.335 C 256.122 199.818,250.551 206.256,248.375 211.754 C 247.182 214.766,248.254 215.720,249.510 212.764 C 251.582 207.888,256.414 202.734,261.790 199.664 L 262.488 199.265 263.758 200.104 C 266.535 201.938,271.073 207.275,270.268 207.760 C 264.955 210.952,262.624 214.670,261.749 221.345 C 261.392 224.070,261.450 224.481,262.196 224.481 C 262.638 224.481,262.725 224.342,262.852 223.443 C 263.735 217.186,266.048 212.948,269.944 210.449 C 271.862 209.219,271.628 209.097,273.151 212.108 C 278.743 223.163,278.301 244.575,272.116 262.206 C 268.381 272.852,256.409 286.401,245.009 292.884 C 224.990 304.269,192.859 303.527,174.441 291.255 C 160.080 281.686,152.511 264.366,153.858 244.153 C 154.836 229.473,156.927 220.994,162.134 210.601 C 166.890 201.107,176.104 190.779,186.296 183.518 C 187.437 182.705,187.767 182.351,187.717 181.997 C 187.595 181.149,186.989 181.390,184.140 183.416 M29.986 206.668 C 34.401 207.579,37.055 209.974,39.255 215.035 L 39.953 216.639 38.522 218.975 C 34.896 224.896,30.870 232.788,28.746 238.142 C 28.031 239.945,27.427 241.452,27.405 241.491 C 27.292 241.687,23.973 240.521,22.748 239.855 C 16.391 236.399,13.056 230.315,13.062 222.186 C 13.071 210.436,19.531 204.513,29.986 206.668 M244.859 365.976 C 252.321 378.930,256.428 393.270,256.763 407.541 C 256.941 415.140,256.538 417.529,253.900 424.529 C 251.919 429.782,251.935 430.078,254.308 432.568 C 258.732 437.209,259.420 444.704,255.769 448.467 C 254.710 449.558,251.892 451.704,249.995 452.866 L 248.525 453.766 248.525 452.141 C 248.525 449.583,246.888 444.980,245.180 442.732 C 244.189 441.429,242.785 440.000,242.495 440.000 C 241.688 440.000,241.759 440.622,242.713 441.917 C 245.275 445.398,246.557 449.127,246.557 453.096 L 246.557 454.831 245.301 455.416 C 242.832 456.565,235.720 459.016,234.855 459.016 C 234.832 459.016,234.743 457.877,234.658 456.483 C 234.464 453.347,234.113 451.965,232.958 449.797 C 231.395 446.863,229.153 444.761,228.323 445.451 C 227.818 445.869,227.871 445.989,229.061 447.116 C 231.266 449.203,232.558 452.881,232.565 457.089 C 232.569 459.723,232.747 459.484,230.477 459.882 C 221.745 461.411,205.484 461.018,194.314 459.006 C 185.614 457.440,182.340 456.013,177.361 451.618 L 176.284 450.668 176.262 445.607 C 176.216 435.333,173.837 427.509,168.262 419.293 L 167.634 418.368 167.970 415.905 C 169.263 406.412,168.929 395.039,167.020 383.605 L 166.440 380.128 167.537 380.009 C 168.140 379.943,170.503 379.688,172.787 379.442 C 182.738 378.368,191.390 376.917,198.178 375.182 C 213.150 371.355,228.990 366.030,238.689 361.564 L 241.421 360.306 242.261 361.615 C 242.723 362.335,243.892 364.297,244.859 365.976 " stroke="none" fill="#040404" fill-rule="evenodd"></path><path id="path4" d="M254.863 152.870 C 254.863 153.220,257.168 156.986,258.393 158.638 C 264.463 166.821,273.802 172.456,284.017 174.100 C 286.630 174.520,286.476 174.693,285.591 172.338 C 281.083 160.341,272.523 154.266,258.361 153.013 C 255.645 152.773,254.863 152.741,254.863 152.870 " stroke="none" fill="#dc8c94" fill-rule="evenodd"></path></g></svg>